<mxfile host="app.diagrams.net" agent="Mozilla/5.0 (Windows NT 10.0; Win64; x64) AppleWebKit/537.36 (KHTML, like Gecko) Chrome/136.0.0.0 Safari/537.36 Edg/136.0.0.0" version="27.0.3">
  <diagram name="Page-1" id="ubG3P6Jgv-weTyulqCx2">
    <mxGraphModel dx="1507" dy="570" grid="1" gridSize="10" guides="1" tooltips="1" connect="1" arrows="1" fold="1" page="1" pageScale="1" pageWidth="850" pageHeight="1100" math="1" shadow="0">
      <root>
        <mxCell id="0" />
        <mxCell id="1" parent="0" />
        <mxCell id="8rvQikhpzi8Cd07ZBpYn-1" value="A" style="ellipse;whiteSpace=wrap;html=1;aspect=fixed;fillColor=#d5e8d4;strokeColor=#82b366;strokeWidth=2;" vertex="1" parent="1">
          <mxGeometry x="240" y="40" width="40" height="40" as="geometry" />
        </mxCell>
        <mxCell id="8rvQikhpzi8Cd07ZBpYn-2" value="C" style="ellipse;whiteSpace=wrap;html=1;aspect=fixed;fillColor=#d5e8d4;strokeColor=#82b366;strokeWidth=2;" vertex="1" parent="1">
          <mxGeometry x="320" y="160" width="40" height="40" as="geometry" />
        </mxCell>
        <mxCell id="8rvQikhpzi8Cd07ZBpYn-3" value="B" style="ellipse;whiteSpace=wrap;html=1;aspect=fixed;fillColor=#f5f5f5;fontColor=#333333;strokeColor=#666666;strokeWidth=2;" vertex="1" parent="1">
          <mxGeometry x="160" y="160" width="40" height="40" as="geometry" />
        </mxCell>
        <mxCell id="8rvQikhpzi8Cd07ZBpYn-6" value="" style="endArrow=classic;html=1;rounded=0;strokeWidth=2;" edge="1" parent="1" source="8rvQikhpzi8Cd07ZBpYn-1" target="8rvQikhpzi8Cd07ZBpYn-3">
          <mxGeometry width="50" height="50" relative="1" as="geometry">
            <mxPoint x="110" y="60" as="sourcePoint" />
            <mxPoint x="160" y="10" as="targetPoint" />
          </mxGeometry>
        </mxCell>
        <mxCell id="8rvQikhpzi8Cd07ZBpYn-7" value="0.5" style="edgeLabel;html=1;align=center;verticalAlign=middle;resizable=0;points=[];" vertex="1" connectable="0" parent="8rvQikhpzi8Cd07ZBpYn-6">
          <mxGeometry x="-0.1818" y="4" relative="1" as="geometry">
            <mxPoint x="-9" as="offset" />
          </mxGeometry>
        </mxCell>
        <mxCell id="8rvQikhpzi8Cd07ZBpYn-8" value="0.4" style="endArrow=classic;html=1;rounded=0;strokeWidth=2;" edge="1" parent="1" source="8rvQikhpzi8Cd07ZBpYn-2" target="8rvQikhpzi8Cd07ZBpYn-1">
          <mxGeometry width="50" height="50" relative="1" as="geometry">
            <mxPoint x="400" y="80" as="sourcePoint" />
            <mxPoint x="230" y="130" as="targetPoint" />
            <mxPoint as="offset" />
          </mxGeometry>
        </mxCell>
        <mxCell id="8rvQikhpzi8Cd07ZBpYn-10" value="0.2" style="endArrow=classic;html=1;rounded=0;strokeWidth=2;entryX=0;entryY=0.5;entryDx=0;entryDy=0;" edge="1" parent="1" source="8rvQikhpzi8Cd07ZBpYn-3" target="8rvQikhpzi8Cd07ZBpYn-2">
          <mxGeometry width="50" height="50" relative="1" as="geometry">
            <mxPoint x="216" y="164" as="sourcePoint" />
            <mxPoint x="251.05572809000068" y="202.11145618000137" as="targetPoint" />
          </mxGeometry>
        </mxCell>
        <mxCell id="8rvQikhpzi8Cd07ZBpYn-11" value="" style="curved=1;endArrow=classic;html=1;rounded=0;dashed=1;dashPattern=8 8;strokeWidth=1;" edge="1" parent="1" source="8rvQikhpzi8Cd07ZBpYn-1" target="8rvQikhpzi8Cd07ZBpYn-2">
          <mxGeometry width="50" height="50" relative="1" as="geometry">
            <mxPoint x="260" y="60" as="sourcePoint" />
            <mxPoint x="70" y="200" as="targetPoint" />
            <Array as="points">
              <mxPoint x="360" y="80" />
              <mxPoint x="440" y="110" />
            </Array>
          </mxGeometry>
        </mxCell>
        <mxCell id="8rvQikhpzi8Cd07ZBpYn-12" value="0.104167" style="edgeLabel;html=1;align=center;verticalAlign=middle;resizable=0;points=[];" vertex="1" connectable="0" parent="8rvQikhpzi8Cd07ZBpYn-11">
          <mxGeometry x="0.1807" y="3" relative="1" as="geometry">
            <mxPoint x="-23" y="-4" as="offset" />
          </mxGeometry>
        </mxCell>
        <mxCell id="8rvQikhpzi8Cd07ZBpYn-15" value="1.0" style="endArrow=classic;html=1;rounded=0;strokeWidth=2;" edge="1" parent="1" target="8rvQikhpzi8Cd07ZBpYn-13">
          <mxGeometry width="50" height="50" relative="1" as="geometry">
            <mxPoint x="171.05572809000068" y="237.88854381999863" as="sourcePoint" />
            <mxPoint x="190" y="210" as="targetPoint" />
          </mxGeometry>
        </mxCell>
        <mxCell id="8rvQikhpzi8Cd07ZBpYn-16" value="0.1" style="endArrow=classic;html=1;rounded=0;strokeWidth=2;" edge="1" parent="1" target="8rvQikhpzi8Cd07ZBpYn-14">
          <mxGeometry width="50" height="50" relative="1" as="geometry">
            <mxPoint x="188.94427190999932" y="237.88854381999863" as="sourcePoint" />
            <mxPoint x="159" y="292" as="targetPoint" />
          </mxGeometry>
        </mxCell>
        <mxCell id="8rvQikhpzi8Cd07ZBpYn-36" value="" style="curved=1;endArrow=classic;html=1;rounded=0;strokeColor=#0000CC;" edge="1" parent="1" source="8rvQikhpzi8Cd07ZBpYn-38" target="8rvQikhpzi8Cd07ZBpYn-51">
          <mxGeometry width="50" height="50" relative="1" as="geometry">
            <mxPoint x="580" y="220" as="sourcePoint" />
            <mxPoint x="440" y="100" as="targetPoint" />
            <Array as="points">
              <mxPoint x="570" y="200" />
              <mxPoint x="520" y="150" />
            </Array>
          </mxGeometry>
        </mxCell>
        <mxCell id="8rvQikhpzi8Cd07ZBpYn-50" value="From row (A)&lt;div&gt;column (C)&lt;/div&gt;" style="edgeLabel;html=1;align=center;verticalAlign=middle;resizable=0;points=[];" vertex="1" connectable="0" parent="8rvQikhpzi8Cd07ZBpYn-36">
          <mxGeometry x="0.0004" y="1" relative="1" as="geometry">
            <mxPoint as="offset" />
          </mxGeometry>
        </mxCell>
        <mxCell id="8rvQikhpzi8Cd07ZBpYn-40" value="" style="ellipse;whiteSpace=wrap;html=1;fillColor=none;strokeColor=#0000CC;" vertex="1" parent="1">
          <mxGeometry x="247.5" y="172.5" width="25" height="15" as="geometry" />
        </mxCell>
        <mxCell id="8rvQikhpzi8Cd07ZBpYn-42" value="" style="curved=1;endArrow=classic;html=1;rounded=0;strokeColor=#0000CC;" edge="1" parent="1" source="8rvQikhpzi8Cd07ZBpYn-40" target="8rvQikhpzi8Cd07ZBpYn-37">
          <mxGeometry width="50" height="50" relative="1" as="geometry">
            <mxPoint x="537" y="261" as="sourcePoint" />
            <mxPoint x="450" y="110" as="targetPoint" />
            <Array as="points">
              <mxPoint x="290" y="200" />
              <mxPoint x="310" y="220" />
            </Array>
          </mxGeometry>
        </mxCell>
        <mxCell id="8rvQikhpzi8Cd07ZBpYn-49" value="To row (B)&lt;div&gt;column (C)&lt;/div&gt;" style="edgeLabel;html=1;align=center;verticalAlign=middle;resizable=0;points=[];" vertex="1" connectable="0" parent="8rvQikhpzi8Cd07ZBpYn-42">
          <mxGeometry x="0.0614" y="-2" relative="1" as="geometry">
            <mxPoint as="offset" />
          </mxGeometry>
        </mxCell>
        <mxCell id="8rvQikhpzi8Cd07ZBpYn-45" value="" style="curved=1;endArrow=classic;html=1;rounded=0;strokeColor=#0000CC;" edge="1" parent="1" source="8rvQikhpzi8Cd07ZBpYn-46" target="8rvQikhpzi8Cd07ZBpYn-43">
          <mxGeometry width="50" height="50" relative="1" as="geometry">
            <mxPoint x="70" y="110" as="sourcePoint" />
            <mxPoint x="73" y="200" as="targetPoint" />
            <Array as="points">
              <mxPoint x="92" y="124" />
              <mxPoint x="110" y="200" />
            </Array>
          </mxGeometry>
        </mxCell>
        <mxCell id="8rvQikhpzi8Cd07ZBpYn-48" value="To row (A)&lt;div&gt;column (B)&lt;/div&gt;" style="edgeLabel;html=1;align=center;verticalAlign=middle;resizable=0;points=[];" vertex="1" connectable="0" parent="8rvQikhpzi8Cd07ZBpYn-45">
          <mxGeometry x="-0.0636" y="3" relative="1" as="geometry">
            <mxPoint as="offset" />
          </mxGeometry>
        </mxCell>
        <mxCell id="8rvQikhpzi8Cd07ZBpYn-46" value="" style="ellipse;whiteSpace=wrap;html=1;fillColor=none;strokeColor=#0000CC;" vertex="1" parent="1">
          <mxGeometry x="208" y="108" width="25" height="14" as="geometry" />
        </mxCell>
        <mxCell id="8rvQikhpzi8Cd07ZBpYn-51" value="" style="ellipse;whiteSpace=wrap;html=1;fillColor=none;strokeColor=#0000CC;" vertex="1" parent="1">
          <mxGeometry x="380" y="90" width="60" height="20" as="geometry" />
        </mxCell>
        <mxCell id="8rvQikhpzi8Cd07ZBpYn-52" value="" style="group;recursiveResize=1;autosize=0;resizable=1;" vertex="1" connectable="0" parent="1">
          <mxGeometry x="82" y="250" width="468" height="50" as="geometry" />
        </mxCell>
        <mxCell id="8rvQikhpzi8Cd07ZBpYn-34" value="&lt;div style=&quot;&quot;&gt;&lt;div&gt;$$\left( \left[ {\begin{array}{ccccc}1&amp;amp;0&amp;amp;0\\0&amp;amp;1&amp;amp;0\\0&amp;amp;0&amp;amp;1\\ \end{array} } \right]-\left[ {\begin{array}{ccccc} 0&amp;amp;0.5&amp;amp; 0\\ 0&amp;amp;0&amp;amp;0.2\\0.4&amp;amp;0&amp;amp;0\\ \end{array} } \right] \right)^{-1} = \left[ {\begin{array}{ccccc} 1.04167&amp;amp;0.520833&amp;amp;0.104167\\ 0.08333333&amp;amp;1.04167&amp;amp;0.208333\\0.416667&amp;amp;0.208333&amp;amp;1.04167\\ \end{array} } \right]$$&lt;/div&gt;&lt;/div&gt;" style="text;html=1;align=left;verticalAlign=middle;resizable=0;points=[];autosize=1;strokeColor=none;fillColor=none;" vertex="1" parent="8rvQikhpzi8Cd07ZBpYn-52">
          <mxGeometry y="20" width="1680" height="30" as="geometry" />
        </mxCell>
        <mxCell id="8rvQikhpzi8Cd07ZBpYn-37" value="" style="ellipse;whiteSpace=wrap;html=1;fillColor=none;strokeColor=#0000CC;" vertex="1" parent="8rvQikhpzi8Cd07ZBpYn-52">
          <mxGeometry x="169.5" y="26" width="24.5" height="20" as="geometry" />
        </mxCell>
        <mxCell id="8rvQikhpzi8Cd07ZBpYn-38" value="" style="ellipse;whiteSpace=wrap;html=1;fillColor=none;strokeColor=#0000CC;" vertex="1" parent="8rvQikhpzi8Cd07ZBpYn-52">
          <mxGeometry x="398" width="62" height="30" as="geometry" />
        </mxCell>
        <mxCell id="8rvQikhpzi8Cd07ZBpYn-43" value="" style="ellipse;whiteSpace=wrap;html=1;fillColor=none;strokeColor=#0000CC;" vertex="1" parent="8rvQikhpzi8Cd07ZBpYn-52">
          <mxGeometry x="138" y="5" width="22.25" height="20" as="geometry" />
        </mxCell>
      </root>
    </mxGraphModel>
  </diagram>
</mxfile>
